ffmpeg started on 2025-06-07 at 17:07:26
Report written to "D:\Convert\FFMetrics\reports\ssim_report-6.txt"
Log level: 32
Command line:
ffmpeg -hide_banner -nostdin -i "G:\\\xc0\xed\xe8\xec\xe5\\\xce\xed\xe3\xee\xe8\xed\xe3\xe8\\!_36_\xce\xf1\xe5\xed\xfc_2024\\DreamCast\\\xdd\xe9, \xd2\xee\xec\xe1\xee!\\\xd2\xc2-1\\[DC] Ooi! Tonbo - 03_Telegram_HEVC.mkv" -i "G:\\\xc0\xed\xe8\xec\xe5\\\xce\xed\xe3\xee\xe8\xed\xe3\xe8\\!_36_\xce\xf1\xe5\xed\xfc_2024\\DreamCast\\\xdd\xe9, \xd2\xee\xec\xe1\xee!\\\xd2\xc2-1\\[DC] Ooi! Tonbo - 03_Telegram.mp4" -lavfi "[0:v]settb=AVTB,setpts=PTS-STARTPTS,format=pix_fmts=yuv420p10,fps=24000/1001,scale=1920:1080:flags=bicubic[main];[1:v]settb=AVTB,setpts=PTS-STARTPTS,format=pix_fmts=yuv420p,fps=24000/1001,scale=1920:1080:flags=bicubic[ref];[main][ref]ssim=eof_action=endall:stats_file='D\\:/Convert/FFMetrics/logs/ssim_logfile-6.txt'" -f null -
Input #0, matroska,webm, from 'G:\Аниме\Онгоинги\!_36_Осень_2024\DreamCast\Эй, Томбо!\ТВ-1\[DC] Ooi! Tonbo - 03_Telegram_HEVC.mkv':
  Metadata:
    COMPATIBLE_BRANDS: isomiso2avc1mp41
    MAJOR_BRAND     : isom
    MINOR_VERSION   : 512
    ENCODER         : Lavf61.7.100
  Duration: 00:24:20.87, start: -0.021000, bitrate: 1115 kb/s
  Stream #0:0: Video: hevc (Main 10), yuv420p10le(tv, bt709, progressive), 1920x1080 [SAR 1:1 DAR 16:9], 23.98 fps, 23.98 tbr, 1k tbn (default)
      Metadata:
        HANDLER_NAME    : VideoHandler
        VENDOR_ID       : [0][0][0][0]
        ENCODER         : Lavc61.19.100 libx265
        BPS             : 919387
        DURATION        : 00:24:19.666708333
        NUMBER_OF_FRAMES: 34997
        NUMBER_OF_BYTES : 167749762
        _STATISTICS_WRITING_APP: mkvpropedit v66.0.0 ('Josie') 64-bit
        _STATISTICS_WRITING_DATE_UTC: 2025-06-05 13:35:44
        _STATISTICS_TAGS: BPS DURATION NUMBER_OF_FRAMES NUMBER_OF_BYTES
  Stream #0:1: Audio: aac (LC), 48000 Hz, stereo, fltp (default)
      Metadata:
        HANDLER_NAME    : SoundHandler
        VENDOR_ID       : [0][0][0][0]
        ENCODER         : Lavc61.19.100 aac
        BPS             : 193088
        DURATION        : 00:24:20.864000000
        NUMBER_OF_FRAMES: 68479
        NUMBER_OF_BYTES : 35259488
        _STATISTICS_WRITING_APP: mkvpropedit v66.0.0 ('Josie') 64-bit
        _STATISTICS_WRITING_DATE_UTC: 2025-06-05 13:35:44
        _STATISTICS_TAGS: BPS DURATION NUMBER_OF_FRAMES NUMBER_OF_BYTES
Input #1, mov,mp4,m4a,3gp,3g2,mj2, from 'G:\Аниме\Онгоинги\!_36_Осень_2024\DreamCast\Эй, Томбо!\ТВ-1\[DC] Ooi! Tonbo - 03_Telegram.mp4':
  Metadata:
    major_brand     : isom
    minor_version   : 512
    compatible_brands: isomiso2avc1mp41
    encoder         : Lavf60.16.100
  Duration: 00:24:20.83, start: 0.000000, bitrate: 3290 kb/s
  Stream #1:0[0x1](und): Video: h264 (High) (avc1 / 0x31637661), yuv420p(tv, bt709, progressive), 1920x1080 [SAR 1:1 DAR 16:9], 3145 kb/s, 23.98 fps, 23.98 tbr, 24k tbn (default)
      Metadata:
        handler_name    : VideoHandler
        vendor_id       : [0][0][0][0]
        encoder         : Lavc60.31.102 h264_qsv
  Stream #1:1[0x2](und): Audio: aac (HE-AACv2) (mp4a / 0x6134706D), 48000 Hz, stereo, fltp, 144 kb/s (default)
      Metadata:
        handler_name    : SoundHandler
        vendor_id       : [0][0][0][0]
Stream mapping:
  Stream #0:0 (hevc) -> settb:default
  Stream #1:0 (h264) -> settb:default
  ssim:default -> Stream #0:0 (wrapped_avframe)
  Stream #0:1 -> #0:1 (aac (native) -> pcm_s16le (native))
Output #0, null, to 'pipe:':
  Metadata:
    COMPATIBLE_BRANDS: isomiso2avc1mp41
    MAJOR_BRAND     : isom
    MINOR_VERSION   : 512
    encoder         : Lavf61.7.100
  Stream #0:0: Video: wrapped_avframe, yuv420p10le(tv, bt709, progressive), 1920x1080 [SAR 1:1 DAR 16:9], q=2-31, 200 kb/s, 23.98 fps, 23.98 tbn
      Metadata:
        encoder         : Lavc61.19.100 wrapped_avframe
  Stream #0:1: Audio: pcm_s16le, 48000 Hz, stereo, s16, 1536 kb/s (default)
      Metadata:
        HANDLER_NAME    : SoundHandler
        VENDOR_ID       : [0][0][0][0]
        _STATISTICS_TAGS: BPS DURATION NUMBER_OF_FRAMES NUMBER_OF_BYTES
        BPS             : 193088
        DURATION        : 00:24:20.864000000
        NUMBER_OF_FRAMES: 68479
        NUMBER_OF_BYTES : 35259488
        _STATISTICS_WRITING_APP: mkvpropedit v66.0.0 ('Josie') 64-bit
        _STATISTICS_WRITING_DATE_UTC: 2025-06-05 13:35:44
        encoder         : Lavc61.19.100 pcm_s16le
frame=  171 fps=0.0 q=-0.0 size=N/A time=00:00:07.13 bitrate=N/A speed=13.8x    frame=  386 fps=375 q=-0.0 size=N/A time=00:00:16.09 bitrate=N/A speed=15.7x    frame=  610 fps=397 q=-0.0 size=N/A time=00:00:25.44 bitrate=N/A speed=16.6x    frame=  854 fps=415 q=-0.0 size=N/A time=00:00:35.61 bitrate=N/A speed=17.3x    frame= 1106 fps=429 q=-0.0 size=N/A time=00:00:46.12 bitrate=N/A speed=17.9x    frame= 1361 fps=440 q=-0.0 size=N/A time=00:00:56.76 bitrate=N/A speed=18.4x    frame= 1623 fps=451 q=-0.0 size=N/A time=00:01:07.69 bitrate=N/A speed=18.8x    frame= 1824 fps=442 q=-0.0 size=N/A time=00:01:16.07 bitrate=N/A speed=18.4x    frame= 2071 fps=447 q=-0.0 size=N/A time=00:01:26.37 bitrate=N/A speed=18.6x    frame= 2323 fps=451 q=-0.0 size=N/A time=00:01:36.88 bitrate=N/A speed=18.8x    frame= 2547 fps=449 q=-0.0 size=N/A time=00:01:46.23 bitrate=N/A speed=18.7x    frame= 2791 fps=451 q=-0.0 size=N/A time=00:01:56.40 bitrate=N/A speed=18.8x    frame= 2984 fps=446 q=-0.0 size=N/A time=00:02:04.45 bitrate=N/A speed=18.6x    frame= 3202 fps=444 q=-0.0 size=N/A time=00:02:13.55 bitrate=N/A speed=18.5x    frame= 3421 fps=443 q=-0.0 size=N/A time=00:02:22.68 bitrate=N/A speed=18.5x    frame= 3631 fps=441 q=-0.0 size=N/A time=00:02:31.44 bitrate=N/A speed=18.4x    frame= 3854 fps=440 q=-0.0 size=N/A time=00:02:40.74 bitrate=N/A speed=18.3x    frame= 4071 fps=439 q=-0.0 size=N/A time=00:02:49.79 bitrate=N/A speed=18.3x    frame= 4305 fps=439 q=-0.0 size=N/A time=00:02:59.55 bitrate=N/A speed=18.3x    frame= 4524 fps=439 q=-0.0 size=N/A time=00:03:08.68 bitrate=N/A speed=18.3x    frame= 4735 fps=437 q=-0.0 size=N/A time=00:03:17.48 bitrate=N/A speed=18.2x    frame= 4976 fps=439 q=-0.0 size=N/A time=00:03:27.54 bitrate=N/A speed=18.3x    frame= 5213 fps=439 q=-0.0 size=N/A time=00:03:37.42 bitrate=N/A speed=18.3x    frame= 5456 fps=441 q=-0.0 size=N/A time=00:03:47.56 bitrate=N/A speed=18.4x    frame= 5754 fps=447 q=-0.0 size=N/A time=00:03:59.98 bitrate=N/A speed=18.6x    frame= 6018 fps=449 q=-0.0 size=N/A time=00:04:11.00 bitrate=N/A speed=18.7x    frame= 6284 fps=451 q=-0.0 size=N/A time=00:04:22.09 bitrate=N/A speed=18.8x    frame= 6540 fps=453 q=-0.0 size=N/A time=00:04:32.77 bitrate=N/A speed=18.9x    frame= 6779 fps=453 q=-0.0 size=N/A time=00:04:42.74 bitrate=N/A speed=18.9x    frame= 7016 fps=454 q=-0.0 size=N/A time=00:04:52.62 bitrate=N/A speed=18.9x    frame= 7277 fps=455 q=-0.0 size=N/A time=00:05:03.51 bitrate=N/A speed=  19x    frame= 7532 fps=457 q=-0.0 size=N/A time=00:05:14.14 bitrate=N/A speed=  19x    frame= 7786 fps=458 q=-0.0 size=N/A time=00:05:24.74 bitrate=N/A speed=19.1x    frame= 8040 fps=459 q=-0.0 size=N/A time=00:05:35.33 bitrate=N/A speed=19.1x    frame= 8264 fps=458 q=-0.0 size=N/A time=00:05:44.67 bitrate=N/A speed=19.1x    frame= 8505 fps=458 q=-0.0 size=N/A time=00:05:54.72 bitrate=N/A speed=19.1x    frame= 8730 fps=458 q=-0.0 size=N/A time=00:06:04.11 bitrate=N/A speed=19.1x    frame= 8966 fps=458 q=-0.0 size=N/A time=00:06:13.95 bitrate=N/A speed=19.1x    frame= 9208 fps=458 q=-0.0 size=N/A time=00:06:24.05 bitrate=N/A speed=19.1x    frame= 9415 fps=457 q=-0.0 size=N/A time=00:06:32.68 bitrate=N/A speed=  19x    frame= 9674 fps=458 q=-0.0 size=N/A time=00:06:43.48 bitrate=N/A speed=19.1x    frame= 9940 fps=459 q=-0.0 size=N/A time=00:06:54.58 bitrate=N/A speed=19.1x    frame=10206 fps=460 q=-0.0 size=N/A time=00:07:05.67 bitrate=N/A speed=19.2x    frame=10467 fps=461 q=-0.0 size=N/A time=00:07:16.56 bitrate=N/A speed=19.2x    frame=10754 fps=463 q=-0.0 size=N/A time=00:07:28.53 bitrate=N/A speed=19.3x    frame=10979 fps=463 q=-0.0 size=N/A time=00:07:37.91 bitrate=N/A speed=19.3x    frame=11209 fps=462 q=-0.0 size=N/A time=00:07:47.50 bitrate=N/A speed=19.3x    frame=11406 fps=461 q=-0.0 size=N/A time=00:07:55.72 bitrate=N/A speed=19.2x    frame=11683 fps=463 q=-0.0 size=N/A time=00:08:07.27 bitrate=N/A speed=19.3x    frame=11923 fps=462 q=-0.0 size=N/A time=00:08:17.28 bitrate=N/A speed=19.3x    frame=12166 fps=463 q=-0.0 size=N/A time=00:08:27.42 bitrate=N/A speed=19.3x    frame=12422 fps=463 q=-0.0 size=N/A time=00:08:38.10 bitrate=N/A speed=19.3x    frame=12671 fps=464 q=-0.0 size=N/A time=00:08:48.48 bitrate=N/A speed=19.3x    frame=12953 fps=465 q=-0.0 size=N/A time=00:09:00.24 bitrate=N/A speed=19.4x    frame=13216 fps=466 q=-0.0 size=N/A time=00:09:11.21 bitrate=N/A speed=19.4x    frame=13474 fps=467 q=-0.0 size=N/A time=00:09:21.97 bitrate=N/A speed=19.5x    frame=13748 fps=468 q=-0.0 size=N/A time=00:09:33.40 bitrate=N/A speed=19.5x    frame=14007 fps=468 q=-0.0 size=N/A time=00:09:44.20 bitrate=N/A speed=19.5x    frame=14266 fps=469 q=-0.0 size=N/A time=00:09:55.01 bitrate=N/A speed=19.6x    frame=14523 fps=469 q=-0.0 size=N/A time=00:10:05.73 bitrate=N/A speed=19.6x    frame=14781 fps=470 q=-0.0 size=N/A time=00:10:16.49 bitrate=N/A speed=19.6x    frame=15058 fps=471 q=-0.0 size=N/A time=00:10:28.04 bitrate=N/A speed=19.6x    frame=15308 fps=471 q=-0.0 size=N/A time=00:10:38.47 bitrate=N/A speed=19.7x    frame=15577 fps=472 q=-0.0 size=N/A time=00:10:49.69 bitrate=N/A speed=19.7x    frame=15836 fps=472 q=-0.0 size=N/A time=00:11:00.49 bitrate=N/A speed=19.7x    frame=16056 fps=472 q=-0.0 size=N/A time=00:11:09.66 bitrate=N/A speed=19.7x    frame=16329 fps=473 q=-0.0 size=N/A time=00:11:21.05 bitrate=N/A speed=19.7x    frame=16606 fps=474 q=-0.0 size=N/A time=00:11:32.60 bitrate=N/A speed=19.8x    frame=16861 fps=474 q=-0.0 size=N/A time=00:11:43.24 bitrate=N/A speed=19.8x    frame=17119 fps=474 q=-0.0 size=N/A time=00:11:54.00 bitrate=N/A speed=19.8x    frame=17336 fps=474 q=-0.0 size=N/A time=00:12:03.05 bitrate=N/A speed=19.8x    frame=17604 fps=474 q=-0.0 size=N/A time=00:12:14.23 bitrate=N/A speed=19.8x    frame=17861 fps=475 q=-0.0 size=N/A time=00:12:24.95 bitrate=N/A speed=19.8x    frame=18122 fps=475 q=-0.0 size=N/A time=00:12:35.83 bitrate=N/A speed=19.8x    frame=18380 fps=475 q=-0.0 size=N/A time=00:12:46.59 bitrate=N/A speed=19.8x    frame=18642 fps=476 q=-0.0 size=N/A time=00:12:57.52 bitrate=N/A speed=19.8x    frame=18926 fps=477 q=-0.0 size=N/A time=00:13:09.37 bitrate=N/A speed=19.9x    frame=19157 fps=476 q=-0.0 size=N/A time=00:13:19.00 bitrate=N/A speed=19.9x    frame=19405 fps=477 q=-0.0 size=N/A time=00:13:29.35 bitrate=N/A speed=19.9x    frame=19682 fps=477 q=-0.0 size=N/A time=00:13:40.90 bitrate=N/A speed=19.9x    frame=19929 fps=477 q=-0.0 size=N/A time=00:13:51.20 bitrate=N/A speed=19.9x    frame=20199 fps=478 q=-0.0 size=N/A time=00:14:02.46 bitrate=N/A speed=19.9x    frame=20447 fps=478 q=-0.0 size=N/A time=00:14:12.81 bitrate=N/A speed=19.9x    frame=20706 fps=478 q=-0.0 size=N/A time=00:14:23.61 bitrate=N/A speed=19.9x    frame=20976 fps=478 q=-0.0 size=N/A time=00:14:34.87 bitrate=N/A speed=  20x    frame=21214 fps=478 q=-0.0 size=N/A time=00:14:44.80 bitrate=N/A speed=19.9x    frame=21494 fps=479 q=-0.0 size=N/A time=00:14:56.47 bitrate=N/A speed=  20x    frame=21782 fps=480 q=-0.0 size=N/A time=00:15:08.49 bitrate=N/A speed=  20x    frame=22055 fps=481 q=-0.0 size=N/A time=00:15:19.87 bitrate=N/A speed=  20x    frame=22306 fps=481 q=-0.0 size=N/A time=00:15:30.34 bitrate=N/A speed=  20x    frame=22562 fps=481 q=-0.0 size=N/A time=00:15:41.02 bitrate=N/A speed=20.1x    frame=22802 fps=480 q=-0.0 size=N/A time=00:15:51.03 bitrate=N/A speed=  20x    frame=23074 fps=481 q=-0.0 size=N/A time=00:16:02.37 bitrate=N/A speed=20.1x    frame=23359 fps=482 q=-0.0 size=N/A time=00:16:14.26 bitrate=N/A speed=20.1x    frame=23612 fps=482 q=-0.0 size=N/A time=00:16:24.81 bitrate=N/A speed=20.1x    frame=23896 fps=483 q=-0.0 size=N/A time=00:16:36.66 bitrate=N/A speed=20.1x    frame=24152 fps=483 q=-0.0 size=N/A time=00:16:47.33 bitrate=N/A speed=20.1x    frame=24406 fps=483 q=-0.0 size=N/A time=00:16:57.93 bitrate=N/A speed=20.1x    frame=24618 fps=482 q=-0.0 size=N/A time=00:17:06.77 bitrate=N/A speed=20.1x    frame=24902 fps=483 q=-0.0 size=N/A time=00:17:18.62 bitrate=N/A speed=20.1x    frame=25135 fps=482 q=-0.0 size=N/A time=00:17:28.33 bitrate=N/A speed=20.1x    frame=25348 fps=482 q=-0.0 size=N/A time=00:17:37.22 bitrate=N/A speed=20.1x    frame=25610 fps=482 q=-0.0 size=N/A time=00:17:48.15 bitrate=N/A speed=20.1x    frame=25832 fps=482 q=-0.0 size=N/A time=00:17:57.40 bitrate=N/A speed=20.1x    frame=26080 fps=482 q=-0.0 size=N/A time=00:18:07.75 bitrate=N/A speed=20.1x    frame=26355 fps=482 q=-0.0 size=N/A time=00:18:19.22 bitrate=N/A speed=20.1x    frame=26586 fps=482 q=-0.0 size=N/A time=00:18:28.85 bitrate=N/A speed=20.1x    frame=26862 fps=482 q=-0.0 size=N/A time=00:18:40.36 bitrate=N/A speed=20.1x    frame=27152 fps=483 q=-0.0 size=N/A time=00:18:52.46 bitrate=N/A speed=20.1x    frame=27391 fps=483 q=-0.0 size=N/A time=00:19:02.43 bitrate=N/A speed=20.1x    frame=27603 fps=482 q=-0.0 size=N/A time=00:19:11.27 bitrate=N/A speed=20.1x    frame=27850 fps=482 q=-0.0 size=N/A time=00:19:21.57 bitrate=N/A speed=20.1x    frame=28051 fps=481 q=-0.0 size=N/A time=00:19:29.96 bitrate=N/A speed=20.1x    frame=28287 fps=481 q=-0.0 size=N/A time=00:19:39.80 bitrate=N/A speed=20.1x    frame=28538 fps=481 q=-0.0 size=N/A time=00:19:50.27 bitrate=N/A speed=20.1x    frame=28788 fps=481 q=-0.0 size=N/A time=00:20:00.69 bitrate=N/A speed=20.1x    frame=29077 fps=482 q=-0.0 size=N/A time=00:20:12.75 bitrate=N/A speed=20.1x    frame=29362 fps=482 q=-0.0 size=N/A time=00:20:24.64 bitrate=N/A speed=20.1x    frame=29638 fps=483 q=-0.0 size=N/A time=00:20:36.15 bitrate=N/A speed=20.1x    frame=29928 fps=484 q=-0.0 size=N/A time=00:20:48.24 bitrate=N/A speed=20.2x    frame=30193 fps=484 q=-0.0 size=N/A time=00:20:59.29 bitrate=N/A speed=20.2x    frame=30420 fps=483 q=-0.0 size=N/A time=00:21:08.76 bitrate=N/A speed=20.2x    frame=30624 fps=483 q=-0.0 size=N/A time=00:21:17.27 bitrate=N/A speed=20.1x    frame=30927 fps=483 q=-0.0 size=N/A time=00:21:29.91 bitrate=N/A speed=20.2x    frame=31168 fps=483 q=-0.0 size=N/A time=00:21:39.96 bitrate=N/A speed=20.2x    frame=31410 fps=483 q=-0.0 size=N/A time=00:21:50.05 bitrate=N/A speed=20.2x    frame=31690 fps=484 q=-0.0 size=N/A time=00:22:01.73 bitrate=N/A speed=20.2x    frame=31965 fps=484 q=-0.0 size=N/A time=00:22:13.20 bitrate=N/A speed=20.2x    frame=32196 fps=484 q=-0.0 size=N/A time=00:22:22.84 bitrate=N/A speed=20.2x    frame=32442 fps=484 q=-0.0 size=N/A time=00:22:33.10 bitrate=N/A speed=20.2x    frame=32666 fps=483 q=-0.0 size=N/A time=00:22:42.44 bitrate=N/A speed=20.2x    frame=32894 fps=483 q=-0.0 size=N/A time=00:22:51.95 bitrate=N/A speed=20.1x    frame=33112 fps=483 q=-0.0 size=N/A time=00:23:01.04 bitrate=N/A speed=20.1x    frame=33318 fps=482 q=-0.0 size=N/A time=00:23:09.63 bitrate=N/A speed=20.1x    frame=33538 fps=482 q=-0.0 size=N/A time=00:23:18.81 bitrate=N/A speed=20.1x    frame=33754 fps=481 q=-0.0 size=N/A time=00:23:27.82 bitrate=N/A speed=20.1x    frame=33981 fps=481 q=-0.0 size=N/A time=00:23:37.29 bitrate=N/A speed=20.1x    frame=34200 fps=480 q=-0.0 size=N/A time=00:23:46.42 bitrate=N/A speed=  20x    frame=34408 fps=480 q=-0.0 size=N/A time=00:23:55.10 bitrate=N/A speed=  20x    frame=34633 fps=480 q=-0.0 size=N/A time=00:24:04.48 bitrate=N/A speed=  20x    frame=34870 fps=479 q=-0.0 size=N/A time=00:24:14.36 bitrate=N/A speed=  20x    [Parsed_ssim_10 @ 000002311bc67480] SSIM Y:0.993967 (22.194665) U:0.992695 (21.363732) V:0.993455 (21.840822) All:0.993670 (21.985706)
[out#0/null @ 0000023119a04200] video:15038KiB audio:273916KiB subtitle:0KiB other streams:0KiB global headers:0KiB muxing overhead: unknown
frame=34997 fps=480 q=-0.0 Lsize=N/A time=00:24:19.66 bitrate=N/A speed=  20x    
